<svg width="30" height="24" viewBox="0 0 30 24" fill="none" xmlns="http://www.w3.org/2000/svg">
<path d="M29.5903 2.93283C28.4444 3.42413 27.2982 3.73094 26.1528 3.85417C27.4465 3.08046 28.3217 1.98741 28.7776 0.575083C27.5941 1.27498 26.3314 1.75382 24.9886 2.01185C23.8055 0.759173 22.3518 0.132568 20.6267 0.132568C18.9756 0.132568 17.5682 0.712774 16.4033 1.87345C15.2392 3.03407 14.657 4.4371 14.657 6.08275C14.657 6.5248 14.7062 6.97938 14.8048 7.44604C12.3651 7.32323 10.0765 6.71226 7.9386 5.61306C5.80081 4.51375 3.9865 3.04917 2.49569 1.21929C1.95353 2.1402 1.68237 3.1413 1.68237 4.22204C1.68237 5.24141 1.92258 6.1872 2.40337 7.05921C2.88383 7.93107 3.53085 8.63716 4.3441 9.17763C3.38287 9.14072 2.48344 8.88888 1.64572 8.42218V8.49585C1.64572 9.93289 2.09853 11.1946 3.00404 12.2818C3.90968 13.3689 5.05255 14.0532 6.43243 14.3358C5.91488 14.4708 5.39112 14.5383 4.86138 14.5383C4.51636 14.5383 4.14052 14.5077 3.73398 14.4467C4.11592 15.6377 4.81828 16.6168 5.84082 17.3849C6.86354 18.1524 8.02178 18.5481 9.31557 18.5732C7.1471 20.2677 4.67669 21.1151 1.9044 21.1151C1.37449 21.1151 0.894087 21.0909 0.462769 21.0417C3.23514 22.8222 6.29079 23.7125 9.62991 23.7125C11.7492 23.7125 13.7391 23.3782 15.5989 22.7087C17.4599 22.0396 19.0491 21.143 20.3677 20.0189C21.6859 18.8952 22.8226 17.6027 23.7775 16.1412C24.7323 14.6796 25.4436 13.1538 25.9122 11.5634C26.3803 9.97263 26.6144 8.37946 26.6144 6.78258C26.6144 6.43866 26.6082 6.18088 26.5958 6.00886C27.7668 5.16184 28.7647 4.13616 29.5903 2.93283Z" fill="#E2E1E1"/>
</svg>
