<svg width="31" height="21" viewBox="0 0 31 21" fill="none" xmlns="http://www.w3.org/2000/svg">
<path d="M29.7547 1.10414C28.6371 -0.185583 26.5737 -0.71167 22.633 -0.71167H8.32825C4.29736 -0.71167 2.19896 -0.151654 1.08555 1.22143C0 2.56021 0 4.53279 0 7.26288V12.4664C0 17.7554 1.288 20.4409 8.32825 20.4409H22.633C26.0503 20.4409 27.944 19.9768 29.1691 18.8384C30.4255 17.6714 30.9615 15.7657 30.9615 12.4664V7.26288C30.9615 4.38377 30.8775 2.39956 29.7547 1.10414ZM19.8775 10.583L13.3817 13.8787C13.2365 13.9524 13.0776 13.9889 12.919 13.9889C12.7395 13.9889 12.5603 13.942 12.4016 13.8487C12.1028 13.6729 11.9203 13.3585 11.9203 13.0194V6.44922C11.9203 6.11064 12.1023 5.79652 12.4005 5.62063C12.6988 5.44476 13.0698 5.43274 13.3794 5.58883L19.8752 8.86323C20.2057 9.0298 20.4131 9.361 20.4136 9.72236C20.4141 10.084 20.2074 10.4157 19.8775 10.583Z" fill="#E2E1E1"/>
</svg>
