<svg width="33" height="20" viewBox="0 0 33 20" fill="none" xmlns="http://www.w3.org/2000/svg">
<path d="M32.566 17.4657C32.5269 17.3815 32.4903 17.3115 32.4563 17.2556C31.8947 16.2476 30.8218 15.0103 29.2379 13.5434L29.2044 13.5098L29.1876 13.4934L29.1706 13.4765H29.1536C28.4348 12.7934 27.9796 12.3342 27.7889 12.099C27.4401 11.6511 27.362 11.1977 27.5527 10.7383C27.6873 10.3912 28.1933 9.6582 29.0692 8.53828C29.5299 7.94473 29.8948 7.46906 30.1644 7.11066C32.1081 4.53512 32.9507 2.88931 32.692 2.17261L32.5918 2.00512C32.5243 1.9043 32.3501 1.81205 32.0695 1.72792C31.7885 1.64397 31.4291 1.6301 30.9909 1.68604L26.138 1.71946C26.0594 1.69169 25.947 1.69427 25.8009 1.72792C25.6549 1.76158 25.5818 1.77845 25.5818 1.77845L25.4971 1.82052L25.4302 1.87106C25.3741 1.90447 25.3123 1.96324 25.2448 2.04724C25.1775 2.13095 25.1216 2.22921 25.0766 2.34115C24.5483 3.69604 23.9476 4.95575 23.2735 6.12022C22.8578 6.81458 22.4761 7.41634 22.1275 7.92586C21.7792 8.4352 21.4871 8.81046 21.2514 9.05103C21.0152 9.29182 20.8024 9.48472 20.6108 9.63043C20.42 9.77622 20.2741 9.83781 20.173 9.81526C20.0719 9.79274 19.9766 9.7704 19.8863 9.74804C19.7291 9.6472 19.6028 9.51007 19.5075 9.33652C19.4116 9.16299 19.3472 8.94454 19.3136 8.6814C19.2799 8.41808 19.2602 8.19159 19.2545 8.00115C19.2492 7.81097 19.2516 7.54194 19.2631 7.19486C19.2748 6.84758 19.2799 6.61261 19.2799 6.48943C19.2799 6.06387 19.2883 5.602 19.305 5.10371C19.322 4.60542 19.3357 4.21064 19.3472 3.91977C19.3587 3.62862 19.364 3.32061 19.364 2.99587C19.364 2.67113 19.3441 2.41645 19.305 2.23162C19.2664 2.047 19.207 1.86782 19.1287 1.6941C19.0498 1.52055 18.9344 1.3863 18.7832 1.291C18.6315 1.19581 18.443 1.12027 18.2187 1.06415C17.6232 0.929845 16.8649 0.857191 15.9436 0.845896C13.8543 0.823541 12.5117 0.958024 11.9163 1.24917C11.6804 1.37218 11.467 1.54026 11.2761 1.75287C11.0738 1.9993 11.0456 2.13378 11.1916 2.1559C11.8658 2.25657 12.343 2.49735 12.6239 2.87802L12.7251 3.07977C12.8038 3.22529 12.8824 3.48297 12.9611 3.85241C13.0397 4.22186 13.0904 4.63055 13.1127 5.07824C13.1687 5.89577 13.1687 6.59562 13.1127 7.17778C13.0564 7.76019 13.0033 8.21359 12.9526 8.53833C12.9019 8.86307 12.8261 9.12621 12.7251 9.32769C12.6239 9.52925 12.5565 9.65243 12.5228 9.69714C12.4891 9.74186 12.461 9.77004 12.4387 9.78109C12.2926 9.83687 12.1408 9.86528 11.9836 9.86528C11.8262 9.86528 11.6354 9.78679 11.4107 9.62997C11.1862 9.47312 10.9531 9.2577 10.7115 8.98331C10.4699 8.70889 10.1975 8.32536 9.89408 7.83274C9.5909 7.34009 9.27633 6.75786 8.95053 6.08604L8.68099 5.59882C8.51249 5.28537 8.28232 4.82898 7.99022 4.23004C7.69796 3.63086 7.43962 3.05128 7.21505 2.4914C7.12528 2.25626 6.99042 2.07725 6.81071 1.95407L6.72639 1.90353C6.67031 1.85882 6.5803 1.81135 6.45684 1.76074C6.33319 1.71022 6.20416 1.67398 6.06924 1.65167L1.45218 1.68508C0.980371 1.68508 0.660259 1.79164 0.491693 2.00442L0.424235 2.10507C0.390535 2.16113 0.373535 2.25068 0.373535 2.37391C0.373535 2.49711 0.407237 2.6483 0.474696 2.82731C1.1487 4.40629 1.88168 5.92908 2.6736 7.39592C3.46552 8.86278 4.1537 10.0444 4.73769 10.9396C5.32181 11.8355 5.91721 12.6811 6.52388 13.4759C7.13053 14.2709 7.53211 14.7805 7.7286 15.0043C7.9253 15.2286 8.07981 15.3962 8.19212 15.5082L8.61346 15.9112C8.88308 16.18 9.27897 16.5019 9.80136 16.877C10.3239 17.2522 10.9023 17.6215 11.537 17.9858C12.1718 18.3495 12.9104 18.6462 13.753 18.8758C14.5955 19.1054 15.4155 19.1976 16.2132 19.1531H18.151C18.5439 19.1192 18.8417 18.9962 19.0441 18.7836L19.1112 18.6994C19.1563 18.6325 19.1986 18.5288 19.2374 18.3889C19.2768 18.2491 19.2964 18.0949 19.2964 17.9271C19.2849 17.4457 19.3216 17.0118 19.4057 16.6257C19.4898 16.2394 19.5855 15.9483 19.6926 15.7522C19.7995 15.5563 19.9203 15.391 20.0547 15.257C20.1893 15.1227 20.2852 15.0413 20.3417 15.0133C20.3977 14.9851 20.4423 14.966 20.4759 14.9545C20.7456 14.865 21.0629 14.9517 21.4282 15.2151C21.7935 15.4782 22.136 15.8031 22.4563 16.1893C22.7766 16.5759 23.1613 17.0096 23.6105 17.4908C24.0602 17.9724 24.4532 18.3304 24.79 18.5658L25.1267 18.7675C25.3519 18.9018 25.6441 19.0251 26.0035 19.137C26.3626 19.2489 26.6768 19.277 26.9468 19.221L31.2603 19.154C31.6872 19.154 32.019 19.0835 32.2545 18.9437C32.4905 18.8038 32.6307 18.6496 32.6759 18.4819C32.721 18.3141 32.7234 18.1235 32.6845 17.9105C32.6445 17.698 32.6052 17.5495 32.566 17.4657Z" fill="#E2E1E1"/>
</svg>
